<svg xmlns="http://www.w3.org/2000/svg" xmlns:xlink="http://www.w3.org/1999/xlink" width="500" zoomAndPan="magnify" viewBox="0 0 375 374.999991" height="500" preserveAspectRatio="xMidYMid meet" version="1.0"><defs><clipPath id="b700d4f852"><path d="M 0 20.625 L 375 20.625 L 375 354.375 L 0 354.375 Z M 0 20.625 " clip-rule="nonzero"/></clipPath><clipPath id="cc6c5f46f7"><path d="M 0 98 L 361 98 L 361 354.375 L 0 354.375 Z M 0 98 " clip-rule="nonzero"/></clipPath><clipPath id="7f743bb068"><path d="M 20 96 L 362 96 L 362 354.375 L 20 354.375 Z M 20 96 " clip-rule="nonzero"/></clipPath></defs><g clip-path="url(#b700d4f852)"><path fill="#5e17eb" d="M 145.394531 44.792969 C 144.242188 43.640625 144.242188 41.777344 145.394531 40.628906 L 147.0625 38.960938 C 148.210938 37.8125 150.074219 37.8125 151.222656 38.960938 L 164.046875 51.785156 C 165.199219 52.933594 165.199219 54.796875 164.046875 55.949219 L 162.378906 57.617188 C 161.230469 58.765625 159.367188 58.765625 158.214844 57.617188 Z M 220.585938 56.769531 C 221.738281 57.917969 223.601562 57.917969 224.75 56.769531 L 237.574219 43.945312 C 238.726562 42.792969 238.726562 40.929688 237.574219 39.78125 L 235.90625 38.113281 C 234.757812 36.964844 232.894531 36.964844 231.742188 38.113281 L 218.917969 50.9375 C 217.769531 52.085938 217.769531 53.949219 218.917969 55.101562 Z M 130.847656 89.351562 L 148.984375 89.351562 C 150.609375 89.351562 151.929688 88.03125 151.929688 86.40625 L 151.929688 84.046875 C 151.929688 82.421875 150.609375 81.105469 148.984375 81.105469 L 130.847656 81.105469 C 129.222656 81.105469 127.90625 82.421875 127.90625 84.046875 L 127.90625 86.40625 C 127.90625 88.03125 129.222656 89.351562 130.847656 89.351562 Z M 190.128906 44.648438 L 192.488281 44.648438 C 194.113281 44.648438 195.433594 43.328125 195.433594 41.703125 L 195.433594 23.570312 C 195.433594 21.945312 194.113281 20.625 192.488281 20.625 L 190.128906 20.625 C 188.503906 20.625 187.183594 21.945312 187.183594 23.570312 L 187.183594 41.703125 C 187.183594 43.332031 188.503906 44.648438 190.128906 44.648438 Z M 231.886719 82.847656 L 231.886719 85.207031 C 231.886719 86.832031 233.207031 88.152344 234.832031 88.152344 L 252.96875 88.152344 C 254.59375 88.152344 255.910156 86.832031 255.910156 85.207031 L 255.910156 82.847656 C 255.910156 81.222656 254.59375 79.90625 252.96875 79.90625 L 234.832031 79.90625 C 233.207031 79.90625 231.886719 81.222656 231.886719 82.847656 Z M 374.820312 271.023438 C 374.820312 277.128906 374.820312 287.828125 374.820312 293.9375 C 374.820312 296.484375 372.757812 298.550781 370.210938 298.550781 C 357.101562 298.550781 319.75 298.550781 306.648438 298.550781 C 304.097656 298.550781 302.035156 296.484375 302.035156 293.9375 L 302.035156 282.679688 L 275.5625 282.679688 L 277.042969 334.628906 L 257.347656 333.800781 L 255.785156 282.679688 L 250.121094 282.679688 L 246.917969 333.707031 L 240.457031 333.738281 C 240.449219 333.757812 240.441406 333.78125 240.4375 333.800781 L 239.203125 333.800781 C 238.886719 336.375 238.496094 340.125 238.511719 342.917969 C 239.472656 345.878906 239.605469 349.269531 239.550781 351.585938 L 216.988281 351.585938 L 215.105469 348.648438 C 219.429688 346.550781 225.003906 343.164062 227.144531 340.5 C 227.816406 338.816406 228.257812 336.800781 228.496094 333.800781 L 228.171875 333.800781 L 230.269531 284.582031 L 230.339844 282.679688 L 131.722656 282.679688 L 131.085938 340.996094 C 132.378906 341.703125 133.648438 342.3125 134.734375 342.835938 C 138.316406 344.566406 137.691406 347.457031 137.691406 347.457031 L 131.015625 347.457031 L 130.941406 354.105469 L 128.101562 354.105469 L 128.023438 347.457031 L 111.402344 347.457031 C 110.042969 342.03125 111.832031 340.09375 111.246094 334.207031 L 100.109375 334.207031 L 97.101562 324.332031 L 96.988281 324.332031 C 96.78125 324.332031 96.617188 324.167969 96.617188 323.960938 C 96.617188 323.792969 96.730469 323.65625 96.882812 323.609375 L 92.1875 308.195312 L 92.144531 308.777344 L 100 344.097656 C 100.132812 344.683594 99.972656 345.292969 99.574219 345.742188 C 99.175781 346.191406 98.585938 346.417969 97.988281 346.359375 C 96.449219 346.203125 95.179688 345.074219 94.84375 343.5625 C 94.066406 340.058594 92.5625 333.308594 90.894531 325.800781 L 90.273438 334.207031 L 76.25 334.207031 C 76.523438 334.679688 76.976562 335.390625 77.746094 336.488281 C 79.960938 339.652344 83.449219 341.4375 86.347656 342.835938 C 89.925781 344.566406 89.304688 347.460938 89.304688 347.460938 L 63.011719 347.460938 C 62.875 346.917969 62.773438 346.40625 62.6875 345.914062 C 62.304688 346.242188 61.808594 346.410156 61.296875 346.359375 C 60.148438 346.242188 59.148438 345.582031 58.578125 344.625 L 58.804688 323.839844 C 60.253906 330.367188 61.625 336.527344 62.574219 340.796875 C 62.832031 338.792969 63.363281 336.824219 63.765625 334.207031 L 63.683594 334.207031 L 65.074219 324.324219 C 65.09375 324.324219 65.109375 324.332031 65.125 324.332031 C 64.921875 324.332031 64.753906 324.164062 64.753906 323.960938 C 64.753906 323.753906 64.921875 323.589844 65.125 323.589844 L 65.179688 323.589844 L 66.160156 316.628906 L 58.882812 316.628906 L 58.90625 314.328125 L 58.472656 354.105469 L 55.632812 354.105469 L 55.265625 322.792969 L 55.363281 331.015625 C 54.476562 327.035156 53.496094 322.621094 52.515625 318.222656 C 50.214844 328.566406 47.886719 339.03125 46.847656 343.710938 C 46.511719 345.222656 45.242188 346.351562 43.703125 346.507812 C 43.105469 346.566406 42.515625 346.339844 42.117188 345.890625 C 41.71875 345.445312 41.558594 344.828125 41.691406 344.246094 L 47.871094 316.464844 L 14.933594 316.464844 C 12.507812 327.382812 9.960938 338.832031 8.855469 343.789062 C 8.519531 345.300781 7.253906 346.429688 5.710938 346.582031 C 5.117188 346.644531 4.527344 346.414062 4.128906 345.96875 C 3.730469 345.519531 3.570312 344.90625 3.699219 344.324219 L 15.316406 292.097656 L 15.53125 292.074219 L 11 292.074219 L 9.449219 285.226562 C 8.882812 282.859375 4.464844 264.355469 1.082031 250.195312 C 0.128906 246.21875 1.054688 242.023438 3.589844 238.8125 C 6.121094 235.605469 9.988281 233.730469 14.078125 233.730469 L 14.53125 233.730469 L 14.53125 234 C 15.335938 233.847656 16.152344 233.75 16.984375 233.75 C 18.90625 233.75 20.886719 233.75 22.855469 233.75 C 22.734375 232.082031 22.660156 230.382812 22.65625 228.65625 C 22.652344 225.65625 23.753906 223.324219 25.496094 221.757812 C 22.945312 219.609375 21.429688 216.386719 21.515625 212.925781 C 21.636719 208.078125 23.566406 202.5 31.007812 200.152344 C 31.007812 200.152344 31.324219 197.976562 32.347656 195.339844 C 32.914062 192.621094 34.449219 190.101562 36.882812 188.351562 C 37.625 187.820312 38.410156 187.402344 39.21875 187.066406 C 40.171875 186.628906 41.226562 186.328125 42.398438 186.207031 C 47.265625 185.714844 50.511719 187.199219 52.757812 190.21875 C 54.535156 192.605469 55.40625 196.226562 55.867188 199.234375 C 56.199219 201.421875 56.679688 203.582031 57.246094 205.722656 C 57.308594 205.96875 57.359375 206.210938 57.417969 206.457031 C 60.449219 208.269531 62.484375 211.570312 62.484375 215.359375 C 62.484375 218.859375 60.75 221.949219 58.097656 223.824219 L 68.214844 232.382812 L 68.917969 226.804688 C 68.976562 226.351562 69.390625 225.984375 69.84375 225.980469 L 92.746094 225.957031 L 109.914062 225.9375 C 110.367188 225.9375 110.691406 226.304688 110.632812 226.757812 L 109.472656 235.9375 C 109.464844 235.9375 109.457031 235.933594 109.449219 235.933594 C 110.222656 236.167969 110.933594 236.519531 111.316406 236.929688 C 111.6875 237.320312 111.265625 239.066406 110.855469 239.378906 C 110.894531 239.421875 110.914062 239.480469 110.886719 239.539062 C 110.882812 239.546875 110.875 239.546875 110.871094 239.550781 C 111.117188 239.914062 110.8125 241.359375 110.289062 241.757812 C 110.351562 241.789062 110.414062 241.816406 110.476562 241.847656 C 110.550781 241.882812 110.574219 241.964844 110.550781 242.039062 C 110.777344 242.46875 110.375 243.945312 109.792969 244.167969 C 109.765625 244.175781 109.722656 244.179688 109.683594 244.183594 C 109.738281 244.230469 109.761719 244.300781 109.730469 244.367188 C 109.71875 244.386719 109.695312 244.390625 109.675781 244.402344 C 109.835938 244.988281 109.617188 245.996094 108.828125 246.34375 C 108.644531 246.425781 108.402344 246.445312 108.140625 246.441406 C 108.140625 246.441406 108.140625 246.441406 108.144531 246.441406 L 107.085938 254.808594 L 117.585938 254.808594 L 117.585938 161.644531 C 102.476562 161.644531 63.730469 161.644531 54.980469 161.644531 C 53.996094 161.644531 53.199219 160.84375 53.199219 159.867188 L 53.199219 123.925781 L 50.679688 123.925781 C 50.3125 123.925781 49.953125 123.777344 49.691406 123.511719 C 49.429688 123.25 49.28125 122.894531 49.28125 122.523438 C 49.28125 120.082031 49.28125 115.074219 49.28125 112.632812 C 49.28125 112.261719 49.429688 111.90625 49.691406 111.640625 C 49.953125 111.382812 50.3125 111.230469 50.679688 111.230469 C 52.964844 111.230469 57.464844 111.230469 59.75 111.230469 C 60.121094 111.230469 60.476562 111.382812 60.738281 111.640625 C 61.003906 111.90625 61.148438 112.261719 61.148438 112.632812 C 61.148438 113.804688 61.148438 115.570312 61.148438 117.355469 L 121.875 117.355469 C 122.855469 117.355469 123.652344 118.152344 123.652344 119.132812 L 123.652344 122.222656 L 178.335938 122.222656 L 178.335938 120.894531 C 178.335938 120.136719 178.949219 119.523438 179.707031 119.523438 L 180.941406 119.523438 C 180.167969 112.351562 176.902344 105.652344 171.753906 100.492188 C 166.34375 95.070312 163.003906 87.59375 163.003906 79.332031 C 163.003906 72.730469 165.109375 66.644531 168.695312 61.703125 C 174.089844 54.269531 182.828125 49.429688 192.761719 49.363281 C 209.410156 49.246094 222.945312 62.707031 222.945312 79.332031 C 222.945312 87.558594 219.625 95.011719 214.257812 100.425781 C 209.101562 105.625 205.792969 112.328125 205.007812 119.523438 L 205.773438 119.523438 C 206.53125 119.523438 207.144531 120.136719 207.144531 120.894531 L 207.144531 122.222656 L 293.167969 122.222656 L 293.167969 98.050781 L 352.429688 98.050781 C 352.429688 96.691406 352.429688 95.417969 352.429688 94.507812 C 352.429688 94.152344 352.570312 93.808594 352.824219 93.550781 C 353.078125 93.300781 353.421875 93.15625 353.78125 93.15625 C 355.984375 93.15625 360.328125 93.15625 362.535156 93.15625 C 362.890625 93.15625 363.234375 93.300781 363.492188 93.550781 C 363.746094 93.808594 363.886719 94.152344 363.886719 94.507812 C 363.886719 96.867188 363.886719 101.699219 363.886719 104.058594 C 363.886719 104.414062 363.746094 104.757812 363.492188 105.011719 C 363.234375 105.269531 362.890625 105.410156 362.535156 105.410156 L 360.449219 105.410156 L 360.449219 145.496094 L 349.972656 145.496094 L 349.972656 266.40625 C 358.277344 266.40625 365.6875 266.40625 370.210938 266.40625 C 372.757812 266.40625 374.820312 268.472656 374.820312 271.023438 Z M 352.484375 104.425781 Z M 353.289062 105.316406 Z M 353.507812 105.875 C 353.503906 105.855469 353.496094 105.835938 353.492188 105.820312 C 353.496094 105.835938 353.503906 105.855469 353.507812 105.875 Z M 353.78125 105.410156 C 353.695312 105.410156 353.613281 105.402344 353.527344 105.386719 C 353.609375 105.402344 353.695312 105.410156 353.78125 105.410156 Z M 352.15625 104.246094 C 352.269531 104.296875 352.378906 104.355469 352.480469 104.421875 C 352.378906 104.355469 352.269531 104.296875 352.15625 104.246094 Z M 351.164062 104.027344 C 351.3125 104.027344 351.453125 104.046875 351.59375 104.070312 C 351.457031 104.046875 351.3125 104.027344 351.164062 104.027344 Z M 351.738281 104.105469 C 351.828125 104.125 351.917969 104.152344 352.003906 104.1875 C 351.917969 104.152344 351.828125 104.125 351.738281 104.105469 Z M 206.882812 129.851562 C 206.882812 129.847656 206.878906 129.84375 206.875 129.84375 C 206.878906 129.847656 206.882812 129.851562 206.882812 129.851562 Z M 207.082031 130.261719 C 207.074219 130.238281 207.070312 130.214844 207.0625 130.191406 C 207.066406 130.214844 207.074219 130.238281 207.082031 130.261719 Z M 206.882812 124.992188 C 206.882812 124.996094 206.878906 125 206.875 125.003906 C 206.878906 125 206.882812 124.996094 206.882812 124.992188 Z M 207.082031 124.582031 C 207.074219 124.605469 207.070312 124.628906 207.0625 124.652344 C 207.070312 124.628906 207.074219 124.605469 207.082031 124.582031 Z M 206.007812 129.304688 C 205.933594 129.289062 205.855469 129.28125 205.773438 129.28125 C 205.855469 129.28125 205.929688 129.292969 206.007812 129.304688 Z M 205.773438 125.5625 C 205.855469 125.5625 205.933594 125.554688 206.007812 125.539062 C 205.929688 125.554688 205.855469 125.5625 205.773438 125.5625 Z M 54.558594 262.386719 C 49.054688 262.429688 47.277344 262.492188 46.714844 262.527344 C 47.28125 262.488281 49.054688 262.429688 54.558594 262.386719 L 54.609375 267.042969 L 54.78125 281.671875 Z M 62.765625 254.460938 L 65.652344 254.457031 L 66.453125 248.117188 L 66.21875 248.148438 L 65.421875 254.457031 L 62.765625 254.460938 C 62.558594 254.234375 62.390625 253.988281 62.242188 253.730469 C 62.390625 253.988281 62.558594 254.234375 62.765625 254.460938 Z M 46.375 261.839844 C 46.371094 261.839844 46.371094 261.839844 46.367188 261.839844 C 46.371094 261.839844 46.371094 261.839844 46.375 261.839844 Z M 46.15625 261.90625 C 46.15625 261.90625 46.152344 261.90625 46.152344 261.90625 C 46.152344 261.90625 46.152344 261.90625 46.15625 261.90625 Z M 46.214844 261.882812 C 46.210938 261.882812 46.210938 261.882812 46.210938 261.882812 C 46.210938 261.882812 46.210938 261.882812 46.214844 261.882812 Z M 46.28125 261.859375 C 46.28125 261.859375 46.285156 261.859375 46.285156 261.859375 C 46.285156 261.859375 46.28125 261.859375 46.28125 261.859375 Z M 46.480469 261.820312 C 46.476562 261.820312 46.472656 261.820312 46.464844 261.824219 C 46.472656 261.820312 46.476562 261.820312 46.480469 261.820312 Z M 54.546875 261.644531 L 54.527344 259.875 L 53.308594 259.875 C 53.753906 260.203125 54.164062 260.554688 54.539062 260.929688 Z M 51.746094 261.664062 C 51.742188 261.664062 51.738281 261.664062 51.734375 261.664062 C 51.738281 261.664062 51.742188 261.664062 51.746094 261.664062 Z M 50.0625 261.683594 C 50.082031 261.683594 50.101562 261.683594 50.121094 261.683594 C 50.101562 261.683594 50.082031 261.683594 50.0625 261.683594 Z M 49.546875 261.6875 C 49.59375 261.6875 49.640625 261.6875 49.691406 261.6875 C 49.640625 261.6875 49.59375 261.6875 49.546875 261.6875 Z M 49.140625 261.695312 C 49.175781 261.695312 49.207031 261.695312 49.242188 261.695312 C 49.207031 261.695312 49.175781 261.695312 49.140625 261.695312 Z M 48.835938 261.703125 C 48.808594 261.703125 48.78125 261.703125 48.75 261.703125 C 48.78125 261.703125 48.808594 261.703125 48.835938 261.703125 Z M 48.386719 261.710938 C 48.417969 261.710938 48.445312 261.710938 48.476562 261.707031 C 48.445312 261.710938 48.417969 261.710938 48.386719 261.710938 Z M 48.066406 261.71875 C 48.089844 261.71875 48.117188 261.71875 48.144531 261.71875 C 48.117188 261.71875 48.089844 261.71875 48.066406 261.71875 Z M 47.78125 261.730469 C 47.800781 261.726562 47.816406 261.726562 47.835938 261.726562 C 47.816406 261.726562 47.800781 261.726562 47.78125 261.730469 Z M 47.515625 261.738281 C 47.535156 261.738281 47.550781 261.738281 47.566406 261.738281 C 47.550781 261.738281 47.535156 261.738281 47.515625 261.738281 Z M 47.277344 261.75 C 47.292969 261.75 47.308594 261.75 47.324219 261.746094 C 47.308594 261.75 47.292969 261.75 47.277344 261.75 Z M 47.070312 261.761719 C 47.082031 261.761719 47.097656 261.761719 47.109375 261.761719 C 47.09375 261.761719 47.082031 261.761719 47.070312 261.761719 Z M 46.886719 261.773438 C 46.898438 261.773438 46.90625 261.773438 46.917969 261.773438 C 46.90625 261.773438 46.898438 261.773438 46.886719 261.773438 Z M 46.726562 261.789062 C 46.734375 261.789062 46.742188 261.789062 46.75 261.789062 C 46.742188 261.789062 46.734375 261.789062 46.726562 261.789062 Z M 46.585938 261.804688 C 46.59375 261.804688 46.597656 261.804688 46.605469 261.804688 C 46.597656 261.804688 46.59375 261.804688 46.585938 261.804688 Z M 45.636719 275.054688 C 45.640625 275.054688 45.644531 275.058594 45.652344 275.0625 C 45.652344 275.0625 45.652344 275.0625 45.652344 275.058594 C 45.644531 275.058594 45.640625 275.054688 45.636719 275.054688 Z M 47.332031 275.765625 C 47.332031 275.765625 47.328125 275.765625 47.328125 275.765625 C 47.296875 275.75 47.257812 275.734375 47.222656 275.71875 C 47.261719 275.734375 47.296875 275.75 47.332031 275.765625 Z M 50.355469 277.515625 C 50.339844 277.503906 50.324219 277.496094 50.3125 277.484375 C 50.3125 277.484375 50.308594 277.484375 50.308594 277.484375 C 50.324219 277.496094 50.339844 277.503906 50.355469 277.515625 Z M 51.75 278.574219 C 51.746094 278.574219 51.746094 278.574219 51.746094 278.574219 C 51.746094 278.574219 51.746094 278.574219 51.75 278.574219 Z M 53.355469 280.054688 C 53.351562 280.046875 53.34375 280.042969 53.339844 280.039062 C 53.34375 280.042969 53.351562 280.046875 53.355469 280.054688 Z M 46.664062 262.53125 C 46.644531 262.53125 46.625 262.53125 46.613281 262.535156 C 46.625 262.53125 46.644531 262.53125 46.664062 262.53125 Z M 105.074219 240.152344 C 105.082031 240.128906 105.097656 240.117188 105.113281 240.097656 C 105.097656 240.117188 105.082031 240.128906 105.074219 240.152344 Z M 104.980469 245.023438 C 105.078125 245.113281 105.179688 245.203125 105.289062 245.289062 C 105.179688 245.203125 105.078125 245.113281 104.980469 245.023438 Z M 104.820312 244.875 C 104.679688 244.726562 104.550781 244.578125 104.441406 244.417969 C 104.550781 244.578125 104.679688 244.726562 104.820312 244.875 Z M 106.277344 245.910156 C 106.214844 245.878906 106.152344 245.851562 106.089844 245.816406 C 106.152344 245.851562 106.214844 245.878906 106.277344 245.910156 Z M 105.796875 245.644531 C 105.699219 245.582031 105.605469 245.523438 105.511719 245.457031 C 105.605469 245.519531 105.699219 245.582031 105.796875 245.644531 Z M 108.714844 235.75 C 108.628906 235.734375 108.542969 235.71875 108.457031 235.707031 C 108.542969 235.71875 108.628906 235.734375 108.714844 235.75 Z M 107.65625 235.636719 C 107.792969 235.636719 107.929688 235.644531 108.074219 235.660156 C 107.929688 235.644531 107.792969 235.636719 107.65625 235.636719 Z M 105.9375 236.675781 C 105.964844 236.378906 106.109375 236.082031 106.464844 235.871094 C 106.582031 235.800781 106.734375 235.75 106.890625 235.710938 C 106.734375 235.75 106.582031 235.800781 106.464844 235.871094 C 106.109375 236.082031 105.964844 236.378906 105.9375 236.675781 Z M 106.984375 235.6875 C 107.136719 235.660156 107.300781 235.644531 107.476562 235.636719 C 107.300781 235.640625 107.136719 235.660156 106.984375 235.6875 Z M 104.351562 238.832031 C 104.367188 238.664062 104.421875 238.511719 104.496094 238.375 C 104.742188 237.929688 105.203125 237.679688 105.691406 237.679688 C 105.710938 237.605469 105.785156 237.554688 105.867188 237.570312 C 105.871094 237.570312 105.996094 237.597656 106.210938 237.652344 C 106 237.597656 105.871094 237.570312 105.867188 237.570312 C 105.785156 237.554688 105.710938 237.605469 105.691406 237.679688 C 105.203125 237.679688 104.742188 237.933594 104.496094 238.375 C 104.421875 238.511719 104.367188 238.664062 104.351562 238.832031 Z M 104.269531 241.484375 C 104.210938 240.652344 104.746094 240.355469 105.09375 240.25 C 104.746094 240.355469 104.210938 240.652344 104.269531 241.484375 Z M 104.15625 243.738281 C 104.074219 243.140625 104.523438 242.773438 104.835938 242.597656 C 104.847656 242.578125 104.859375 242.554688 104.878906 242.542969 C 104.859375 242.554688 104.847656 242.578125 104.835938 242.597656 C 104.523438 242.773438 104.074219 243.140625 104.15625 243.738281 Z M 65.929688 246.394531 L 55.84375 239.027344 L 55.464844 244.546875 C 55.453125 244.746094 55.289062 244.894531 55.09375 244.894531 C 55.085938 244.894531 55.078125 244.894531 55.070312 244.894531 C 55.046875 244.890625 55.03125 244.882812 55.007812 244.875 C 54.953125 245.152344 54.90625 245.425781 54.847656 245.703125 L 66.308594 247.445312 L 66.398438 246.738281 C 66.386719 246.730469 66.371094 246.722656 66.359375 246.714844 Z M 27.050781 220.648438 C 27.0625 220.644531 27.074219 220.640625 27.082031 220.632812 C 27.074219 220.640625 27.0625 220.644531 27.050781 220.648438 Z M 27.832031 220.269531 C 27.894531 220.242188 27.957031 220.214844 28.019531 220.191406 C 27.957031 220.214844 27.894531 220.242188 27.832031 220.269531 Z M 13.390625 234.265625 C 13.371094 234.273438 13.347656 234.28125 13.324219 234.285156 C 13.347656 234.28125 13.371094 234.273438 13.390625 234.265625 Z M 10.304688 235.5625 C 10.222656 235.609375 10.136719 235.652344 10.054688 235.703125 C 10.136719 235.652344 10.222656 235.613281 10.304688 235.5625 Z M 8.890625 236.5 C 9.066406 236.367188 9.25 236.242188 9.429688 236.117188 C 9.246094 236.242188 9.070312 236.367188 8.890625 236.5 Z M 7.769531 237.460938 C 7.972656 237.265625 8.183594 237.074219 8.398438 236.894531 C 8.183594 237.074219 7.972656 237.265625 7.769531 237.460938 Z M 6.496094 238.839844 C 6.78125 238.472656 7.089844 238.132812 7.410156 237.804688 C 7.089844 238.132812 6.78125 238.472656 6.496094 238.839844 Z M 6.285156 259.839844 C 6.386719 260.265625 6.488281 260.691406 6.589844 261.117188 C 6.488281 260.691406 6.386719 260.265625 6.285156 259.839844 Z M 3.988281 250.21875 C 4.417969 252.023438 4.867188 253.898438 5.320312 255.800781 C 4.867188 253.898438 4.417969 252.023438 3.988281 250.21875 Z M 5.425781 256.246094 C 5.625 257.074219 5.824219 257.914062 6.023438 258.75 C 5.824219 257.910156 5.625 257.074219 5.425781 256.246094 Z M 55.082031 307.105469 L 55.078125 306.714844 C 54.761719 308.136719 54.433594 309.617188 54.097656 311.128906 C 54.417969 309.683594 54.734375 308.265625 55.035156 306.902344 C 55.050781 306.96875 55.066406 307.039062 55.082031 307.105469 Z M 53.664062 313.070312 C 53.664062 313.070312 53.664062 313.074219 53.664062 313.074219 C 53.664062 313.074219 53.664062 313.070312 53.664062 313.070312 Z M 66.722656 312.640625 L 70.011719 289.320312 C 70.027344 289.320312 70.042969 289.335938 70.0625 289.335938 C 69.976562 289.335938 69.886719 289.308594 69.820312 289.246094 C 69.734375 289.175781 69.695312 289.070312 69.695312 288.964844 L 59.183594 289.023438 L 59.199219 287.6875 L 59.460938 263.5 L 59.460938 263.40625 L 59.464844 263.332031 L 58.925781 312.640625 Z M 69.78125 288.722656 C 69.75 288.757812 69.726562 288.796875 69.714844 288.839844 C 69.726562 288.796875 69.75 288.757812 69.78125 288.722656 Z M 121.523438 324.285156 C 121.527344 324.28125 121.53125 324.277344 121.539062 324.273438 C 121.53125 324.277344 121.527344 324.28125 121.523438 324.285156 Z M 127.925781 339 L 126.996094 259.875 L 127.265625 282.679688 L 117.585938 282.679688 L 117.585938 259.875 L 59.5 259.875 L 59.476562 262.0625 L 84.550781 263.707031 C 84.789062 263.722656 85.015625 263.753906 85.246094 263.78125 L 99.597656 264.742188 C 105.6875 265.136719 109.324219 269.496094 110.667969 275.449219 L 121.546875 323.652344 C 121.648438 323.71875 121.722656 323.832031 121.722656 323.960938 C 121.722656 324.035156 121.695312 324.097656 121.660156 324.15625 L 123.925781 334.207031 L 123.695312 334.207031 C 124.007812 334.835938 124.496094 335.691406 125.15625 336.488281 C 125.9375 337.421875 126.898438 338.246094 127.925781 339 Z M 340.003906 282.679688 L 345.746094 288.953125 Z M 278.699219 353.121094 C 278.808594 353.777344 278.289062 354.371094 277.621094 354.371094 L 258.511719 354.371094 C 257.910156 354.371094 257.421875 353.878906 257.425781 353.273438 C 257.433594 351.144531 257.46875 349.324219 257.515625 347.699219 C 257.515625 347.632812 257.519531 347.570312 257.519531 347.503906 C 257.527344 347.273438 257.535156 347.046875 257.542969 346.828125 C 257.546875 346.71875 257.550781 346.613281 257.554688 346.503906 C 257.558594 346.320312 257.566406 346.136719 257.574219 345.957031 C 257.578125 345.785156 257.585938 345.621094 257.59375 345.457031 C 257.597656 345.34375 257.601562 345.230469 257.605469 345.125 C 257.617188 344.832031 257.632812 344.546875 257.644531 344.265625 C 257.8125 340.542969 258.019531 337.871094 258.019531 334.375 C 258.019531 334.1875 258.027344 334.011719 258.03125 333.828125 L 268.050781 334.25 C 268.011719 336.222656 268.167969 338.1875 268.886719 340.136719 C 268.9375 340.277344 268.984375 340.417969 269.042969 340.558594 C 269.042969 340.5625 269.046875 340.566406 269.050781 340.570312 C 269.1875 340.910156 269.347656 341.230469 269.523438 341.542969 C 269.585938 341.65625 269.65625 341.757812 269.722656 341.867188 C 269.84375 342.066406 269.964844 342.265625 270.101562 342.457031 C 270.1875 342.578125 270.28125 342.695312 270.371094 342.816406 C 270.496094 342.980469 270.621094 343.148438 270.757812 343.308594 C 270.859375 343.429688 270.96875 343.550781 271.078125 343.671875 C 271.210938 343.816406 271.339844 343.964844 271.476562 344.105469 C 271.597656 344.230469 271.71875 344.351562 271.839844 344.472656 C 271.972656 344.605469 272.105469 344.738281 272.246094 344.867188 C 272.378906 344.996094 272.515625 345.121094 272.652344 345.246094 C 272.777344 345.363281 272.90625 345.480469 273.035156 345.597656 C 273.589844 346.097656 274.152344 346.585938 274.699219 347.078125 C 274.765625 347.136719 274.832031 347.195312 274.894531 347.253906 C 276.707031 348.90625 278.296875 350.644531 278.699219 353.121094 Z M 258.652344 344.441406 C 258.59375 344.445312 258.535156 344.441406 258.476562 344.441406 C 258.535156 344.441406 258.59375 344.445312 258.652344 344.441406 Z M 260.921875 343.222656 C 261.105469 343.027344 261.285156 342.84375 261.46875 342.667969 C 261.285156 342.84375 261.105469 343.027344 260.921875 343.222656 C 260.78125 343.375 260.640625 343.503906 260.5 343.625 C 260.640625 343.503906 260.78125 343.375 260.921875 343.222656 Z M 259.027344 344.394531 C 258.960938 344.410156 258.890625 344.421875 258.824219 344.429688 C 258.890625 344.421875 258.960938 344.410156 259.027344 344.394531 Z M 259.546875 344.238281 C 259.425781 344.292969 259.304688 344.332031 259.183594 344.363281 C 259.304688 344.332031 259.421875 344.292969 259.546875 344.238281 Z M 259.945312 344.03125 C 259.84375 344.09375 259.742188 344.148438 259.640625 344.191406 C 259.742188 344.148438 259.84375 344.09375 259.945312 344.03125 Z M 260.371094 343.730469 C 260.273438 343.808594 260.179688 343.878906 260.082031 343.941406 C 260.179688 343.878906 260.273438 343.808594 260.371094 343.730469 Z M 268.378906 339.996094 C 267.339844 339.75 266.296875 339.828125 265.265625 340.171875 C 265.457031 340.109375 265.648438 340.050781 265.84375 340.003906 C 266.183594 339.925781 266.523438 339.878906 266.863281 339.859375 C 267.367188 339.832031 267.875 339.878906 268.378906 339.996094 Z M 262.023438 342.152344 C 261.898438 342.265625 261.769531 342.382812 261.640625 342.503906 C 261.765625 342.382812 261.894531 342.265625 262.023438 342.152344 Z M 262.609375 341.664062 C 262.476562 341.769531 262.347656 341.871094 262.21875 341.984375 C 262.347656 341.871094 262.480469 341.769531 262.609375 341.664062 Z M 263.914062 340.78125 C 263.535156 340.996094 263.15625 341.246094 262.785156 341.527344 C 263.15625 341.246094 263.53125 340.996094 263.914062 340.78125 Z M 264.085938 340.691406 C 264.21875 340.617188 264.355469 340.550781 264.488281 340.488281 C 264.355469 340.550781 264.21875 340.617188 264.085938 340.691406 Z M 265.09375 340.234375 C 264.957031 340.285156 264.820312 340.339844 264.683594 340.398438 C 264.820312 340.339844 264.957031 340.285156 265.09375 340.234375 Z M 215.109375 348.648438 C 214.449219 348.96875 213.820312 349.261719 213.234375 349.511719 C 210.671875 350.625 210.023438 351.90625 209.855469 353.140625 C 209.769531 353.792969 210.28125 354.371094 210.9375 354.371094 L 238.382812 354.371094 C 238.953125 354.371094 239.425781 353.933594 239.464844 353.367188 C 239.5 352.902344 239.535156 352.292969 239.550781 351.585938 L 216.988281 351.585938 Z M 215.109375 348.648438 " fill-opacity="1" fill-rule="nonzero"/></g><g clip-path="url(#cc6c5f46f7)"><path fill="#2e1042" d="M 279.351562 252.710938 L 248.917969 252.710938 L 248.917969 203.769531 L 279.351562 203.769531 Z M 173.375 163.257812 L 142.945312 163.257812 L 142.945312 252.25 L 173.375 252.25 Z M 222.945312 192.050781 L 192.511719 192.050781 L 192.511719 252.25 L 222.945312 252.25 Z M 328.917969 167.484375 L 298.484375 167.484375 L 298.484375 252.710938 L 328.917969 252.710938 Z M 207.144531 133.953125 L 207.144531 130.652344 C 207.144531 129.894531 206.53125 129.28125 205.773438 129.28125 L 179.707031 129.28125 C 178.949219 129.28125 178.335938 129.894531 178.335938 130.652344 L 178.335938 133.953125 C 178.335938 134.707031 178.949219 135.320312 179.707031 135.320312 L 205.773438 135.320312 C 206.53125 135.320312 207.144531 134.707031 207.144531 133.953125 Z M 207.144531 124.191406 L 207.144531 120.894531 C 207.144531 120.136719 206.53125 119.523438 205.773438 119.523438 L 179.707031 119.523438 C 178.949219 119.523438 178.335938 120.136719 178.335938 120.894531 L 178.335938 124.191406 C 178.335938 124.949219 178.949219 125.5625 179.707031 125.5625 L 205.773438 125.5625 C 206.53125 125.5625 207.144531 124.949219 207.144531 124.191406 Z M 121.875 117.355469 L 61.148438 117.355469 C 61.148438 119.289062 61.148438 121.253906 61.148438 122.523438 C 61.148438 122.894531 61.003906 123.25 60.742188 123.511719 C 60.476562 123.777344 60.121094 123.921875 59.75 123.921875 L 53.199219 123.921875 L 53.199219 159.863281 C 53.199219 160.84375 53.996094 161.640625 54.980469 161.640625 C 64.765625 161.640625 112.085938 161.640625 121.875 161.640625 C 122.855469 161.640625 123.652344 160.84375 123.652344 159.863281 L 123.652344 119.132812 C 123.652344 118.152344 122.855469 117.355469 121.875 117.355469 Z M 84.320312 148.101562 C 83.867188 148.558594 83.25 148.8125 82.609375 148.8125 C 78.9375 148.8125 71.996094 148.8125 68.328125 148.8125 C 67.691406 148.8125 67.074219 148.558594 66.621094 148.101562 C 66.167969 147.648438 65.914062 147.035156 65.914062 146.394531 C 65.914062 145.753906 66.167969 145.136719 66.621094 144.6875 C 67.074219 144.230469 67.691406 143.976562 68.328125 143.976562 C 71.996094 143.976562 78.9375 143.976562 82.609375 143.976562 C 83.25 143.976562 83.867188 144.230469 84.320312 144.6875 C 84.773438 145.136719 85.027344 145.753906 85.027344 146.394531 C 85.027344 147.035156 84.773438 147.648438 84.320312 148.101562 Z M 84.320312 140.976562 C 83.867188 141.433594 83.25 141.683594 82.609375 141.683594 C 78.9375 141.683594 71.996094 141.683594 68.328125 141.683594 C 67.691406 141.683594 67.074219 141.433594 66.621094 140.976562 C 66.167969 140.523438 65.914062 139.910156 65.914062 139.269531 C 65.914062 138.628906 66.167969 138.015625 66.621094 137.5625 C 67.074219 137.105469 67.691406 136.851562 68.328125 136.851562 L 82.609375 136.851562 C 83.25 136.851562 83.867188 137.105469 84.320312 137.5625 C 84.773438 138.011719 85.027344 138.628906 85.027344 139.269531 C 85.027344 139.910156 84.773438 140.523438 84.320312 140.976562 Z M 84.320312 133.851562 C 83.867188 134.308594 83.25 134.5625 82.609375 134.5625 C 78.9375 134.5625 71.996094 134.5625 68.328125 134.5625 C 67.691406 134.5625 67.074219 134.308594 66.621094 133.851562 C 66.167969 133.398438 65.914062 132.789062 65.914062 132.144531 C 65.914062 131.503906 66.167969 130.890625 66.621094 130.4375 C 67.074219 129.980469 67.691406 129.726562 68.328125 129.726562 L 82.609375 129.726562 C 83.25 129.726562 83.867188 129.980469 84.320312 130.4375 C 84.773438 130.890625 85.027344 131.503906 85.027344 132.144531 C 85.027344 132.789062 84.773438 133.398438 84.320312 133.851562 Z M 355.675781 101.9375 C 355.789062 101.9375 355.898438 101.894531 355.984375 101.820312 L 358.15625 99.90625 L 360.328125 101.820312 C 360.363281 101.851562 360.40625 101.875 360.449219 101.894531 L 360.449219 100.683594 L 358.863281 99.28125 L 360.261719 98.046875 L 358.851562 98.046875 L 358.15625 98.660156 L 357.460938 98.046875 L 356.050781 98.046875 L 357.449219 99.28125 L 355.363281 101.121094 C 355.273438 101.203125 355.214844 101.316406 355.210938 101.441406 C 355.199219 101.566406 355.242188 101.6875 355.324219 101.78125 C 355.414062 101.882812 355.542969 101.9375 355.675781 101.9375 Z M 353.78125 105.410156 C 353.609375 105.410156 353.445312 105.375 353.289062 105.316406 C 353.472656 105.65625 353.585938 106.039062 353.585938 106.449219 C 353.585938 107.789062 352.5 108.871094 351.164062 108.871094 L 301.234375 108.871094 C 299.894531 108.871094 298.8125 107.789062 298.8125 106.449219 C 298.8125 105.113281 299.894531 104.027344 301.234375 104.027344 C 310.289062 104.027344 342.109375 104.027344 351.164062 104.027344 C 351.652344 104.027344 352.105469 104.175781 352.484375 104.425781 C 352.449219 104.304688 352.429688 104.183594 352.429688 104.058594 C 352.429688 102.605469 352.429688 100.21875 352.429688 98.050781 L 293.167969 98.050781 L 293.167969 145.496094 L 360.449219 145.496094 L 360.449219 105.410156 Z M 333.90625 134.742188 L 301.632812 134.503906 C 301.40625 134.503906 301.222656 134.316406 301.222656 134.089844 C 301.226562 133.859375 301.410156 133.675781 301.640625 133.679688 L 333.914062 133.914062 C 334.144531 133.917969 334.324219 134.101562 334.324219 134.332031 C 334.320312 134.558594 334.136719 134.742188 333.90625 134.742188 Z M 333.910156 129.089844 L 301.636719 129.089844 C 301.40625 129.089844 301.222656 128.90625 301.222656 128.675781 C 301.222656 128.449219 301.40625 128.265625 301.636719 128.265625 L 333.910156 128.265625 C 334.140625 128.265625 334.324219 128.449219 334.324219 128.675781 C 334.324219 128.90625 334.140625 129.089844 333.910156 129.089844 Z M 333.910156 123.863281 L 301.636719 123.863281 C 301.40625 123.863281 301.222656 123.679688 301.222656 123.453125 C 301.222656 123.222656 301.40625 123.039062 301.636719 123.039062 L 333.910156 123.039062 C 334.140625 123.039062 334.324219 123.222656 334.324219 123.453125 C 334.324219 123.679688 334.140625 123.863281 333.910156 123.863281 Z M 352.914062 138.371094 L 337.570312 138.371094 L 337.570312 120.777344 L 352.914062 120.777344 Z M 351.46875 116.574219 L 301.539062 116.574219 C 300.203125 116.574219 299.121094 115.492188 299.121094 114.152344 C 299.121094 112.816406 300.203125 111.730469 301.539062 111.730469 C 310.597656 111.730469 342.414062 111.730469 351.46875 111.730469 C 352.808594 111.730469 353.890625 112.816406 353.890625 114.152344 C 353.890625 115.492188 352.808594 116.574219 351.46875 116.574219 Z M 40.371094 254.8125 L 40.371094 259.875 L 54.527344 259.875 L 54.78125 281.667969 C 50.945312 276.828125 45.015625 273.769531 38.441406 273.785156 C 27.636719 273.8125 15.078125 273.839844 9.632812 273.855469 C 7.96875 266.882812 5.824219 257.914062 3.988281 250.21875 C 3.035156 246.242188 3.960938 242.046875 6.496094 238.835938 C 8.511719 236.28125 11.382812 234.589844 14.53125 234 L 14.53125 233.730469 L 14.078125 233.730469 C 9.988281 233.730469 6.121094 235.605469 3.589844 238.816406 C 1.054688 242.023438 0.128906 246.222656 1.082031 250.199219 C 4.464844 264.355469 8.882812 282.859375 9.449219 285.226562 L 11 292.078125 L 15.53125 292.078125 L 15.316406 292.097656 L 3.703125 344.324219 C 3.570312 344.910156 3.730469 345.519531 4.128906 345.96875 C 4.527344 346.417969 5.117188 346.644531 5.710938 346.585938 C 7.253906 346.429688 8.523438 345.300781 8.859375 343.789062 C 9.960938 338.832031 12.507812 327.382812 14.9375 316.464844 L 47.871094 316.464844 L 41.691406 344.246094 C 41.5625 344.832031 41.71875 345.445312 42.121094 345.890625 C 42.519531 346.339844 43.105469 346.570312 43.703125 346.507812 C 45.242188 346.351562 46.511719 345.226562 46.847656 343.710938 C 48.289062 337.238281 52.191406 319.691406 55.078125 306.714844 L 55.636719 354.105469 L 58.472656 354.105469 L 59.5 259.875 L 126.996094 259.875 L 128.105469 354.105469 L 130.945312 354.105469 L 131.972656 259.875 L 143.878906 259.875 L 143.878906 254.8125 Z M 40.371094 254.8125 " fill-opacity="1" fill-rule="evenodd"/></g><path fill="#5fa9e0" d="M 205.773438 125.5625 C 205.929688 125.5625 206.078125 125.53125 206.214844 125.484375 L 206.214844 129.359375 C 206.078125 129.3125 205.929688 129.28125 205.773438 129.28125 L 179.730469 129.28125 L 179.730469 125.5625 Z M 207.113281 81.160156 C 207.878906 78.398438 207.894531 75.734375 206.464844 73.289062 C 206.335938 73.066406 206.050781 72.992188 205.832031 73.121094 C 205.609375 73.25 205.535156 73.535156 205.664062 73.753906 C 206.828125 75.753906 206.90625 77.964844 206.371094 80.285156 C 205.691406 79.691406 204.820312 79.347656 203.886719 79.347656 C 202.59375 79.347656 201.40625 80 200.707031 81.089844 L 200.246094 81.808594 L 199.796875 81.101562 C 199.101562 80.003906 197.910156 79.347656 196.609375 79.347656 C 195.316406 79.347656 194.125 80 193.429688 81.089844 L 192.96875 81.808594 L 192.519531 81.101562 C 191.820312 80.003906 190.628906 79.347656 189.328125 79.347656 C 188.035156 79.347656 186.847656 80 186.148438 81.085938 L 185.6875 81.808594 L 185.238281 81.097656 C 184.542969 80.003906 183.351562 79.347656 182.050781 79.347656 C 180.878906 79.347656 179.796875 79.886719 179.082031 80.800781 C 178.40625 78.292969 178.414062 75.898438 179.667969 73.753906 C 179.796875 73.53125 179.722656 73.246094 179.5 73.117188 C 179.28125 72.988281 178.996094 73.0625 178.867188 73.285156 C 177.324219 75.925781 177.453125 78.820312 178.410156 81.816406 L 176.699219 84.496094 C 176.585938 84.675781 176.636719 84.910156 176.816406 85.023438 C 176.992188 85.140625 177.230469 85.085938 177.34375 84.90625 L 178.730469 82.738281 C 179.75 85.5 181.390625 88.335938 183.011719 91.132812 C 183.335938 91.691406 183.65625 92.246094 183.972656 92.800781 C 186.828125 97.796875 187.167969 113.179688 187.179688 119.519531 L 188.117188 119.519531 C 188.109375 113.105469 187.78125 97.589844 184.78125 92.339844 C 184.464844 91.78125 184.140625 91.226562 183.816406 90.664062 C 182.082031 87.679688 180.324219 84.640625 179.363281 81.738281 L 179.515625 81.503906 C 180.070312 80.632812 181.019531 80.113281 182.050781 80.113281 C 183.085938 80.113281 184.035156 80.632812 184.59375 81.507812 L 185.230469 82.515625 L 184.703125 83.34375 C 184.472656 83.703125 184.457031 84.160156 184.667969 84.539062 C 184.878906 84.914062 185.273438 85.140625 185.703125 85.132812 C 186.132812 85.125 186.507812 84.898438 186.710938 84.523438 C 186.910156 84.144531 186.894531 83.707031 186.667969 83.347656 L 186.140625 82.519531 L 186.796875 81.496094 C 187.351562 80.628906 188.296875 80.113281 189.332031 80.113281 C 190.367188 80.113281 191.316406 80.632812 191.871094 81.507812 L 192.511719 82.515625 L 191.984375 83.339844 C 191.753906 83.703125 191.738281 84.160156 191.949219 84.535156 C 192.160156 84.914062 192.558594 85.140625 192.984375 85.132812 C 193.410156 85.125 193.789062 84.898438 193.988281 84.519531 C 194.191406 84.144531 194.175781 83.707031 193.945312 83.347656 L 193.421875 82.519531 L 194.074219 81.503906 C 194.628906 80.632812 195.578125 80.113281 196.609375 80.113281 C 197.644531 80.113281 198.59375 80.632812 199.152344 81.507812 L 199.789062 82.515625 L 199.261719 83.34375 C 199.03125 83.703125 199.015625 84.160156 199.226562 84.539062 C 199.433594 84.90625 199.820312 85.132812 200.242188 85.132812 C 200.25 85.132812 200.257812 85.132812 200.261719 85.132812 C 200.691406 85.125 201.066406 84.898438 201.269531 84.523438 C 201.46875 84.144531 201.453125 83.707031 201.226562 83.347656 L 200.699219 82.519531 L 201.355469 81.5 C 201.910156 80.628906 202.855469 80.113281 203.890625 80.113281 C 204.769531 80.113281 205.582031 80.488281 206.148438 81.136719 C 205.25 84.21875 203.371094 87.46875 201.515625 90.664062 C 201.191406 91.226562 200.867188 91.78125 200.550781 92.335938 C 197.550781 97.589844 197.222656 113.105469 197.214844 119.519531 L 198.152344 119.519531 C 198.164062 113.179688 198.503906 97.796875 201.359375 92.796875 C 201.675781 92.246094 201.996094 91.6875 202.320312 91.128906 C 204.0625 88.128906 205.824219 85.078125 206.820312 82.121094 L 208.605469 84.929688 C 208.71875 85.109375 208.953125 85.160156 209.132812 85.046875 C 209.3125 84.933594 209.363281 84.699219 209.25 84.519531 Z M 186.035156 84.164062 C 186 84.222656 185.902344 84.367188 185.691406 84.371094 C 185.476562 84.375 185.371094 84.230469 185.335938 84.167969 C 185.300781 84.105469 185.234375 83.941406 185.351562 83.761719 L 185.6875 83.234375 L 186.019531 83.761719 C 186.132812 83.9375 186.066406 84.101562 186.035156 84.164062 Z M 193.3125 84.164062 C 193.28125 84.222656 193.179688 84.367188 192.96875 84.371094 C 192.757812 84.375 192.652344 84.230469 192.617188 84.167969 C 192.582031 84.105469 192.515625 83.941406 192.628906 83.761719 L 192.964844 83.234375 L 193.300781 83.761719 C 193.410156 83.9375 193.347656 84.101562 193.3125 84.164062 Z M 200.589844 84.164062 C 200.558594 84.222656 200.457031 84.367188 200.25 84.371094 C 200.03125 84.375 199.929688 84.230469 199.894531 84.167969 C 199.859375 84.105469 199.789062 83.941406 199.90625 83.761719 L 200.242188 83.234375 L 200.578125 83.761719 C 200.691406 83.9375 200.625 84.101562 200.589844 84.164062 Z M 370.210938 266.40625 C 357.101562 266.40625 319.75 266.40625 306.648438 266.40625 C 304.097656 266.40625 302.035156 268.46875 302.035156 271.023438 L 302.035156 273.527344 L 374.816406 273.527344 L 374.816406 274.351562 L 302.035156 274.351562 L 302.035156 293.9375 C 302.035156 296.484375 304.097656 298.550781 306.648438 298.550781 C 319.75 298.550781 357.101562 298.550781 370.210938 298.550781 C 372.757812 298.550781 374.820312 296.484375 374.820312 293.9375 C 374.820312 287.832031 374.820312 277.128906 374.820312 271.023438 C 374.820312 268.472656 372.757812 266.40625 370.210938 266.40625 Z M 360.488281 270.441406 C 359.917969 270.441406 359.453125 269.976562 359.453125 269.402344 C 359.453125 268.832031 359.917969 268.367188 360.488281 268.367188 C 361.0625 268.367188 361.527344 268.832031 361.527344 269.402344 C 361.527344 269.976562 361.0625 270.441406 360.488281 270.441406 Z M 363.945312 270.441406 C 363.375 270.441406 362.910156 269.976562 362.910156 269.402344 C 362.910156 268.832031 363.375 268.367188 363.945312 268.367188 C 364.519531 268.367188 364.984375 268.832031 364.984375 269.402344 C 364.984375 269.976562 364.519531 270.441406 363.945312 270.441406 Z M 367.402344 270.441406 C 366.828125 270.441406 366.363281 269.976562 366.363281 269.402344 C 366.363281 268.832031 366.828125 268.367188 367.402344 268.367188 C 367.972656 268.367188 368.4375 268.832031 368.4375 269.402344 C 368.4375 269.976562 367.972656 270.441406 367.402344 270.441406 Z M 367.535156 292.058594 C 367.363281 292.207031 367.101562 292.191406 366.953125 292.019531 L 355.722656 279.140625 L 346.351562 288.960938 C 346.273438 289.042969 346.164062 289.085938 346.050781 289.085938 C 346.050781 289.085938 346.050781 289.085938 346.046875 289.085938 C 345.933594 289.085938 345.824219 289.035156 345.746094 288.953125 L 338.769531 281.332031 L 328.550781 292.199219 C 328.472656 292.28125 328.332031 292.355469 328.25 292.328125 C 328.136719 292.328125 328.03125 292.285156 327.953125 292.203125 L 320.308594 284.3125 L 310.539062 292.621094 C 310.457031 292.6875 310.363281 292.71875 310.269531 292.71875 C 310.152344 292.71875 310.035156 292.671875 309.953125 292.574219 C 309.808594 292.402344 309.828125 292.140625 310 291.992188 L 320.070312 283.429688 C 320.234375 283.289062 320.480469 283.300781 320.632812 283.457031 L 328.246094 291.316406 L 338.476562 280.441406 C 338.554688 280.355469 338.664062 280.3125 338.777344 280.3125 C 338.875 280.28125 339.003906 280.359375 339.082031 280.445312 L 346.0625 288.070312 L 355.441406 278.242188 C 355.519531 278.160156 355.628906 278.132812 355.746094 278.117188 C 355.863281 278.117188 355.972656 278.171875 356.050781 278.257812 L 367.578125 291.476562 C 367.726562 291.648438 367.707031 291.910156 367.535156 292.058594 Z M 353.78125 105.410156 L 362.535156 105.410156 C 362.890625 105.410156 363.234375 105.269531 363.492188 105.011719 C 363.746094 104.757812 363.886719 104.414062 363.886719 104.058594 C 363.886719 101.699219 363.886719 96.867188 363.886719 94.507812 C 363.886719 94.152344 363.746094 93.808594 363.492188 93.550781 C 363.234375 93.300781 362.890625 93.15625 362.535156 93.15625 C 360.328125 93.15625 355.984375 93.15625 353.78125 93.15625 C 353.421875 93.15625 353.078125 93.300781 352.824219 93.550781 C 352.570312 93.808594 352.429688 94.152344 352.429688 94.507812 C 352.429688 96.867188 352.429688 101.699219 352.429688 104.058594 C 352.429688 104.414062 352.570312 104.757812 352.824219 105.011719 C 353.078125 105.269531 353.421875 105.410156 353.78125 105.410156 Z M 355.367188 97.445312 C 355.175781 97.273438 355.15625 96.980469 355.324219 96.789062 C 355.5 96.59375 355.792969 96.574219 355.984375 96.746094 L 358.15625 98.660156 L 360.328125 96.746094 C 360.519531 96.578125 360.816406 96.59375 360.984375 96.785156 C 361.15625 96.980469 361.136719 97.273438 360.945312 97.445312 L 358.859375 99.28125 L 360.945312 101.121094 C 361.039062 101.203125 361.09375 101.316406 361.101562 101.441406 C 361.109375 101.566406 361.070312 101.6875 360.984375 101.78125 C 360.898438 101.878906 360.773438 101.9375 360.636719 101.9375 C 360.523438 101.9375 360.414062 101.894531 360.328125 101.820312 L 358.15625 99.902344 L 355.980469 101.820312 C 355.898438 101.894531 355.789062 101.9375 355.671875 101.9375 C 355.539062 101.9375 355.414062 101.878906 355.324219 101.78125 C 355.242188 101.6875 355.199219 101.566406 355.207031 101.441406 C 355.214844 101.320312 355.269531 101.203125 355.363281 101.121094 L 357.449219 99.28125 Z M 89.304688 347.457031 L 63.011719 347.457031 C 61.65625 342.039062 62.96875 339.402344 63.765625 334.207031 L 76.25 334.207031 C 76.523438 334.679688 76.976562 335.390625 77.746094 336.488281 C 79.960938 339.652344 83.449219 341.4375 86.347656 342.835938 C 89.925781 344.566406 89.304688 347.457031 89.304688 347.457031 Z M 102.136719 139.511719 L 109.050781 146.363281 C 107.839844 147.585938 106.320312 148.46875 104.65625 148.914062 C 99.46875 150.304688 94.125 147.21875 92.738281 142.03125 C 91.347656 136.84375 94.433594 131.5 99.621094 130.109375 C 104.808594 128.71875 110.152344 131.804688 111.542969 136.992188 C 111.761719 137.808594 111.871094 138.65625 111.871094 139.5 Z M 137.691406 347.457031 L 111.402344 347.457031 C 110.042969 342.03125 111.832031 340.09375 111.246094 334.207031 L 123.695312 334.207031 C 124.007812 334.835938 124.496094 335.691406 125.15625 336.488281 C 127.632812 339.453125 131.839844 341.4375 134.734375 342.835938 C 138.316406 344.566406 137.691406 347.457031 137.691406 347.457031 Z M 50.679688 123.925781 L 59.75 123.925781 C 60.121094 123.925781 60.476562 123.777344 60.742188 123.511719 C 61.003906 123.25 61.148438 122.894531 61.148438 122.523438 C 61.148438 120.082031 61.148438 115.074219 61.148438 112.632812 C 61.148438 112.261719 61.003906 111.90625 60.742188 111.640625 C 60.476562 111.382812 60.121094 111.230469 59.75 111.230469 C 57.464844 111.230469 52.964844 111.230469 50.679688 111.230469 C 50.3125 111.230469 49.953125 111.382812 49.691406 111.640625 C 49.429688 111.90625 49.28125 112.261719 49.28125 112.632812 C 49.28125 115.074219 49.28125 120.078125 49.28125 122.523438 C 49.28125 122.894531 49.429688 123.25 49.691406 123.511719 C 49.953125 123.777344 50.3125 123.925781 50.679688 123.925781 Z M 52.328125 115.671875 C 52.128906 115.5 52.109375 115.195312 52.28125 114.992188 C 52.460938 114.792969 52.765625 114.773438 52.96875 114.949219 L 55.214844 116.933594 L 57.464844 114.949219 C 57.558594 114.863281 57.675781 114.820312 57.8125 114.828125 C 57.941406 114.835938 58.0625 114.894531 58.148438 114.992188 C 58.234375 115.089844 58.273438 115.214844 58.265625 115.34375 C 58.257812 115.472656 58.199219 115.589844 58.101562 115.675781 L 55.945312 117.574219 L 58.105469 119.480469 C 58.203125 119.566406 58.261719 119.683594 58.269531 119.8125 C 58.277344 119.941406 58.234375 120.066406 58.148438 120.164062 C 58.054688 120.265625 57.925781 120.328125 57.785156 120.328125 C 57.667969 120.328125 57.554688 120.28125 57.464844 120.203125 L 55.214844 118.21875 L 52.964844 120.207031 C 52.878906 120.285156 52.765625 120.328125 52.644531 120.328125 C 52.507812 120.328125 52.375 120.265625 52.28125 120.164062 C 52.105469 119.964844 52.125 119.660156 52.324219 119.480469 L 54.484375 117.574219 Z M 183.984375 135.320312 L 201.960938 135.320312 C 200.925781 139.328125 197.300781 142.292969 192.972656 142.292969 C 188.644531 142.292969 185.015625 139.328125 183.984375 135.320312 Z M 90.902344 227.203125 L 70.960938 234.707031 L 54.761719 221.007812 C 54.191406 220.523438 53.582031 220.160156 52.953125 219.902344 C 52.269531 219.398438 51.414062 219.007812 50.324219 218.820312 C 49.832031 218.734375 49.367188 218.65625 48.910156 218.578125 L 48.761719 220.929688 C 48.460938 224.410156 45.675781 227.089844 42.195312 226.792969 C 38.714844 226.496094 36.132812 223.433594 36.429688 219.953125 L 36.746094 217.988281 C 34.566406 218.320312 32.089844 218.925781 28.855469 219.890625 C 25.277344 220.960938 22.652344 224.023438 22.660156 228.65625 C 22.679688 239.871094 25.375 250.003906 28.648438 257.589844 C 30.246094 261.292969 49.625 259.757812 50.894531 257.199219 C 51.113281 256.761719 51.3125 256.316406 51.515625 255.875 L 66.789062 255.667969 C 69.320312 255.632812 70.582031 253.839844 70.546875 251.3125 C 70.515625 248.964844 69.480469 247.816406 67.203125 247.582031 L 54.847656 245.703125 C 55.316406 243.472656 55.640625 241.238281 55.832031 239.019531 L 65.929688 246.394531 L 66.355469 246.714844 C 68.195312 248.09375 70.617188 248.15625 72.484375 247.066406 L 95.152344 234.234375 C 97.335938 232.960938 97.960938 231.277344 96.6875 229.09375 C 95.5 227.066406 93 226.285156 90.902344 227.203125 Z M 61.757812 252.078125 C 61.757812 250.1875 63.152344 248.582031 65.027344 248.3125 L 66.453125 248.117188 L 65.652344 254.457031 L 62.765625 254.460938 C 62.15625 253.796875 61.757812 252.96875 61.757812 252.078125 Z M 284.410156 188.050781 C 284.609375 190.714844 284.804688 193.378906 284.964844 196.042969 L 275.394531 196.429688 C 274.601562 202.90625 273.980469 208.902344 273.980469 211.773438 C 273.980469 217.960938 274.917969 228.863281 274.917969 233.371094 C 274.917969 234.566406 274.050781 235.578125 272.875 235.78125 C 260.441406 237.890625 245.960938 237.832031 233.191406 235.761719 C 232.007812 235.570312 231.132812 234.554688 231.132812 233.351562 C 231.132812 228.832031 232.066406 217.953125 232.066406 211.773438 C 232.066406 208.882812 231.613281 202.824219 231.015625 196.296875 L 218.609375 189.636719 L 225.683594 175.617188 C 226.628906 173.5625 228.332031 172.113281 230.304688 171.429688 C 230.3125 171.425781 230.320312 171.421875 230.332031 171.417969 C 235.496094 169.261719 240.582031 167.824219 245.648438 167.089844 L 245.769531 168.65625 C 246.109375 172.730469 249.550781 175.851562 253.882812 175.484375 C 258.214844 175.113281 261.453125 171.511719 261.113281 167.441406 L 261.050781 167.03125 C 266.855469 167.816406 272.714844 169.5 278.714844 172.089844 C 278.714844 172.089844 278.710938 172.117188 278.710938 172.128906 C 281.226562 173.285156 283.113281 175.675781 283.484375 178.628906 C 283.875 181.765625 284.136719 184.90625 284.410156 188.050781 Z M 199.273438 205.867188 L 148.246094 205.867188 L 148.246094 154.804688 L 199.273438 154.804688 Z M 199.273438 205.867188 " fill-opacity="1" fill-rule="nonzero"/><g clip-path="url(#7f743bb068)"><path fill="#293237" d="M 234.527344 138.601562 C 234.492188 138.433594 234.558594 138.261719 234.699219 138.160156 C 234.839844 138.0625 235.023438 138.054688 235.167969 138.140625 C 235.441406 138.304688 235.769531 138.460938 236.121094 138.542969 C 236.277344 138.582031 236.441406 138.542969 236.566406 138.441406 C 236.691406 138.335938 236.761719 138.179688 236.753906 138.019531 C 236.753906 138.039062 236.753906 138.050781 236.757812 138.066406 C 236.757812 138.070312 236.757812 138.070312 236.757812 138.070312 C 236.769531 138.386719 236.785156 138.578125 236.757812 138.066406 C 236.601562 134.933594 238.421875 132.039062 241.3125 130.820312 C 243.601562 129.855469 246.734375 129.070312 250.203125 129.703125 C 257.554688 131.046875 259.046875 137.167969 259.046875 137.167969 C 261.375 138.066406 263.242188 139.878906 264.199219 142.1875 C 265.160156 144.496094 265.132812 147.09375 264.125 149.382812 C 262.910156 152.144531 261.242188 154.75 259.152344 155.386719 L 258.953125 154.15625 C 259.6875 153.589844 260.195312 152.8125 260.355469 151.898438 C 260.726562 149.710938 259.660156 147.707031 257.976562 147.421875 C 256.292969 147.132812 255.90625 148.726562 255.71875 149.820312 L 255.671875 150.09375 C 254.914062 150.058594 254.273438 150.074219 254.273438 150.074219 C 253.429688 147.574219 254.585938 143.601562 254.144531 140.605469 C 245.53125 138.902344 242.382812 142.515625 238.695312 141.015625 C 238.601562 141.335938 238.53125 141.660156 238.46875 141.988281 C 236.453125 141.472656 234.917969 140.449219 234.527344 138.601562 Z M 65.125 324.332031 C 65.109375 324.332031 65.09375 324.324219 65.074219 324.324219 L 63.683594 334.207031 L 90.277344 334.207031 L 91.007812 324.25 C 90.945312 324.300781 90.871094 324.335938 90.785156 324.335938 L 65.125 324.335938 Z M 121.351562 324.332031 L 97.101562 324.332031 L 100.109375 334.207031 L 123.925781 334.207031 L 121.65625 324.15625 C 121.59375 324.261719 121.480469 324.332031 121.351562 324.332031 Z M 46.273438 254.898438 C 46.273438 255.355469 46.644531 255.722656 47.097656 255.71875 L 66.085938 255.699219 L 68.402344 255.695312 L 85.21875 255.675781 L 106.15625 255.652344 C 106.609375 255.652344 107.023438 255.285156 107.082031 254.832031 L 108.144531 246.445312 C 106.964844 246.414062 105.207031 245.550781 104.4375 244.414062 C 103.757812 243.402344 104.421875 242.832031 104.832031 242.597656 C 104.847656 242.578125 104.855469 242.554688 104.878906 242.542969 C 104.589844 242.324219 104.386719 242.097656 104.332031 241.875 C 104.054688 240.742188 104.699219 240.371094 105.09375 240.25 C 105.082031 240.21875 105.070312 240.1875 105.074219 240.152344 C 105.082031 240.128906 105.097656 240.117188 105.113281 240.097656 C 104.761719 239.855469 104.507812 239.609375 104.421875 239.378906 C 104.28125 238.984375 104.347656 238.652344 104.496094 238.375 C 104.742188 237.929688 105.203125 237.679688 105.691406 237.679688 C 105.710938 237.605469 105.785156 237.554688 105.867188 237.570312 C 105.871094 237.570312 105.996094 237.597656 106.210938 237.648438 C 106.066406 237.457031 105.96875 237.222656 105.941406 236.972656 C 105.894531 236.582031 105.988281 236.152344 106.464844 235.871094 C 107.097656 235.496094 108.355469 235.59375 109.472656 235.941406 L 110.632812 226.761719 C 110.691406 226.308594 110.371094 225.9375 109.917969 225.9375 L 92.75 225.957031 L 69.84375 225.984375 C 69.390625 225.984375 68.976562 226.355469 68.921875 226.808594 L 65.421875 254.457031 L 46.273438 254.476562 Z M 55.09375 244.894531 C 55.289062 244.894531 55.453125 244.746094 55.464844 244.546875 L 56.15625 234.402344 C 56.171875 234.199219 56.015625 234.023438 55.8125 234.007812 C 55.601562 234 55.429688 234.148438 55.414062 234.355469 L 54.722656 244.5 C 54.710938 244.703125 54.863281 244.878906 55.070312 244.894531 C 55.078125 244.894531 55.085938 244.894531 55.09375 244.894531 Z M 45.871094 245.5 C 48.625 246.113281 51.722656 246.425781 51.753906 246.429688 C 51.765625 246.429688 51.777344 246.433594 51.789062 246.433594 C 51.980469 246.433594 52.140625 246.289062 52.160156 246.097656 C 52.179688 245.894531 52.03125 245.710938 51.828125 245.691406 C 51.796875 245.6875 48.742188 245.378906 46.03125 244.773438 C 43.933594 244.308594 37.71875 235.632812 35.5 232.328125 C 35.386719 232.15625 35.152344 232.113281 34.984375 232.226562 C 34.8125 232.339844 34.769531 232.574219 34.882812 232.742188 C 35.714844 233.984375 43.101562 244.886719 45.871094 245.5 Z M 26.898438 242.175781 C 26.789062 242 26.5625 241.949219 26.386719 242.054688 C 26.214844 242.164062 26.160156 242.394531 26.269531 242.566406 C 26.570312 243.050781 33.730469 254.390625 40.636719 255.179688 C 40.652344 255.183594 40.664062 255.183594 40.679688 255.183594 C 40.867188 255.183594 41.027344 255.042969 41.046875 254.855469 C 41.070312 254.648438 40.925781 254.464844 40.722656 254.441406 C 34.171875 253.695312 26.972656 242.289062 26.898438 242.175781 Z M 25.496094 221.757812 C 26.449219 220.902344 27.589844 220.269531 28.855469 219.890625 C 32.089844 218.921875 34.566406 218.316406 36.746094 217.988281 L 37.625 212.503906 L 37.957031 208.378906 L 37.054688 206.121094 C 37.136719 206.035156 37.207031 205.9375 37.285156 205.839844 C 37.140625 205.878906 36.992188 205.898438 36.835938 205.886719 C 34.972656 205.710938 33.550781 204.582031 33.234375 202.988281 C 32.824219 200.9375 33.773438 199.023438 35.351562 198.707031 C 36.933594 198.394531 37.339844 199.882812 37.542969 200.90625 L 38.191406 204.175781 C 39.039062 201.921875 39.066406 199 39.007812 197.464844 C 39.023438 197.464844 39.042969 197.464844 39.058594 197.464844 C 39.214844 197.464844 39.371094 197.460938 39.53125 197.457031 C 39.691406 197.457031 39.847656 197.457031 40.011719 197.453125 C 40.15625 197.449219 40.304688 197.445312 40.453125 197.441406 C 40.640625 197.4375 40.828125 197.429688 41.019531 197.425781 C 41.160156 197.417969 41.300781 197.410156 41.445312 197.402344 C 41.65625 197.394531 41.863281 197.382812 42.078125 197.367188 C 42.21875 197.359375 42.355469 197.347656 42.496094 197.335938 C 42.71875 197.316406 42.941406 197.296875 43.167969 197.273438 C 43.304688 197.257812 43.441406 197.242188 43.582031 197.226562 C 43.8125 197.199219 44.046875 197.167969 44.277344 197.132812 C 44.414062 197.113281 44.546875 197.09375 44.683594 197.070312 C 44.921875 197.03125 45.15625 196.988281 45.394531 196.941406 C 45.523438 196.914062 45.652344 196.886719 45.78125 196.859375 C 46.023438 196.804688 46.261719 196.746094 46.496094 196.683594 C 46.621094 196.648438 46.746094 196.617188 46.867188 196.582031 C 47.105469 196.511719 47.339844 196.433594 47.570312 196.355469 C 47.6875 196.3125 47.804688 196.273438 47.917969 196.230469 C 48.152344 196.144531 48.378906 196.042969 48.601562 195.941406 C 48.707031 195.894531 48.8125 195.847656 48.917969 195.796875 C 49.144531 195.6875 49.359375 195.5625 49.574219 195.4375 C 49.667969 195.382812 49.761719 195.332031 49.851562 195.273438 C 50.066406 195.136719 50.273438 194.980469 50.476562 194.824219 C 50.550781 194.765625 50.628906 194.710938 50.699219 194.652344 C 50.910156 194.476562 51.101562 194.285156 51.289062 194.085938 C 51.339844 194.027344 51.398438 193.976562 51.453125 193.921875 C 51.65625 193.6875 51.839844 193.4375 52.011719 193.175781 C 52.035156 193.140625 52.0625 193.109375 52.085938 193.074219 C 52.277344 192.765625 52.449219 192.441406 52.59375 192.09375 C 53.191406 193.285156 53.558594 194.617188 53.625 196.035156 L 54.089844 206.300781 C 54.234375 209.578125 52.363281 212.742188 49.199219 214.105469 L 48.761719 220.929688 L 48.910156 218.578125 C 49.367188 218.65625 49.832031 218.734375 50.324219 218.820312 C 51.414062 219.011719 52.273438 219.398438 52.953125 219.902344 C 53.582031 220.160156 54.191406 220.523438 54.761719 221.007812 L 58.097656 223.828125 C 60.75 221.949219 62.484375 218.859375 62.484375 215.363281 C 62.484375 211.574219 60.449219 208.273438 57.417969 206.460938 C 57.363281 206.214844 57.308594 205.972656 57.246094 205.726562 C 56.679688 203.585938 56.199219 201.425781 55.867188 199.238281 C 55.410156 196.230469 54.535156 192.609375 52.757812 190.222656 C 50.515625 187.203125 47.269531 185.714844 42.398438 186.210938 C 41.226562 186.332031 40.171875 186.632812 39.21875 187.070312 C 38.410156 187.402344 37.625 187.824219 36.886719 188.355469 C 34.453125 190.105469 32.914062 192.625 32.347656 195.34375 C 31.324219 197.980469 31.011719 200.15625 31.011719 200.15625 C 23.566406 202.503906 21.636719 208.078125 21.515625 212.929688 C 21.429688 216.386719 22.949219 219.609375 25.496094 221.757812 Z M 231.042969 196.960938 C 231.054688 196.960938 231.066406 196.957031 231.078125 196.957031 C 231.285156 196.9375 231.433594 196.753906 231.410156 196.550781 L 230.140625 184.199219 C 230.121094 183.996094 229.9375 183.847656 229.734375 183.867188 C 229.53125 183.890625 229.382812 184.070312 229.402344 184.277344 L 230.671875 196.625 C 230.691406 196.816406 230.855469 196.960938 231.042969 196.960938 Z M 255.296875 188.863281 L 267.589844 188.863281 C 267.796875 188.863281 267.964844 189.027344 267.964844 189.234375 L 267.964844 194.765625 C 267.964844 198.363281 265.039062 201.285156 261.445312 201.285156 C 257.847656 201.285156 254.925781 198.363281 254.925781 194.765625 L 254.925781 189.234375 C 254.925781 189.027344 255.09375 188.863281 255.296875 188.863281 Z M 255.667969 194.765625 C 255.667969 197.949219 258.257812 200.542969 261.445312 200.542969 C 264.628906 200.542969 267.21875 197.949219 267.21875 194.765625 L 267.21875 189.605469 L 255.667969 189.605469 Z M 275.347656 196.761719 C 275.363281 196.765625 275.382812 196.765625 275.398438 196.765625 C 275.582031 196.765625 275.738281 196.632812 275.765625 196.445312 L 277.46875 184.03125 C 277.496094 183.824219 277.351562 183.636719 277.148438 183.609375 C 276.941406 183.589844 276.757812 183.726562 276.730469 183.929688 L 275.027344 196.34375 C 275 196.546875 275.144531 196.734375 275.347656 196.761719 Z M 278.699219 353.121094 C 278.296875 350.644531 276.707031 348.90625 274.890625 347.253906 C 274.894531 347.253906 274.894531 347.253906 274.894531 347.253906 C 274.832031 347.195312 274.761719 347.136719 274.695312 347.078125 C 274.148438 346.582031 273.589844 346.09375 273.035156 345.597656 C 272.90625 345.480469 272.777344 345.363281 272.648438 345.246094 C 272.511719 345.121094 272.378906 344.992188 272.242188 344.863281 C 272.105469 344.734375 271.972656 344.601562 271.839844 344.46875 C 271.714844 344.347656 271.59375 344.226562 271.476562 344.105469 C 271.339844 343.960938 271.207031 343.816406 271.078125 343.667969 C 270.96875 343.546875 270.859375 343.429688 270.753906 343.304688 C 270.621094 343.144531 270.496094 342.980469 270.371094 342.8125 C 270.277344 342.695312 270.183594 342.578125 270.097656 342.453125 C 269.964844 342.265625 269.84375 342.0625 269.722656 341.863281 C 269.65625 341.757812 269.582031 341.652344 269.519531 341.539062 C 269.347656 341.230469 269.1875 340.90625 269.046875 340.570312 C 269.046875 340.5625 269.042969 340.558594 269.042969 340.554688 C 268.984375 340.417969 268.9375 340.277344 268.886719 340.136719 C 268.210938 339.910156 267.535156 339.820312 266.859375 339.855469 C 266.519531 339.875 266.179688 339.921875 265.84375 340.003906 C 264.160156 340.394531 262.503906 341.53125 260.921875 343.21875 C 259.960938 344.246094 259.070312 344.511719 258.308594 344.429688 C 258.074219 344.402344 257.851562 344.347656 257.644531 344.261719 C 257.632812 344.542969 257.617188 344.828125 257.605469 345.121094 C 257.601562 345.226562 257.597656 345.339844 257.59375 345.453125 C 257.585938 345.617188 257.582031 345.78125 257.574219 345.953125 C 257.566406 346.132812 257.558594 346.316406 257.554688 346.503906 C 257.550781 346.609375 257.546875 346.714844 257.542969 346.824219 C 257.535156 347.046875 257.527344 347.269531 257.519531 347.5 C 257.519531 347.566406 257.515625 347.632812 257.515625 347.699219 C 257.46875 349.320312 257.433594 351.140625 257.425781 353.269531 C 257.421875 353.875 257.910156 354.367188 258.511719 354.367188 L 277.621094 354.367188 C 278.289062 354.371094 278.808594 353.777344 278.699219 353.121094 Z M 274.203125 235.082031 C 273.851562 235.4375 273.398438 235.691406 272.875 235.78125 C 260.441406 237.890625 245.960938 237.832031 233.195312 235.761719 C 232.773438 235.695312 232.398438 235.519531 232.082031 235.273438 L 230.269531 284.582031 L 228.171875 333.800781 L 240.4375 333.800781 C 240.441406 333.78125 240.449219 333.757812 240.457031 333.738281 L 246.921875 333.707031 L 252.332031 247.398438 L 252.957031 242.164062 L 254.554688 242.328125 L 257.347656 333.800781 L 277.046875 334.628906 Z M 227.15625 340.488281 C 225.023438 343.152344 219.4375 346.546875 215.109375 348.648438 L 216.988281 351.585938 L 239.550781 351.585938 C 239.605469 349.265625 239.472656 345.875 238.507812 342.910156 C 235.738281 344.324219 230.8125 345.316406 227.15625 340.488281 Z M 215.109375 348.648438 C 214.449219 348.96875 213.820312 349.261719 213.234375 349.511719 C 210.671875 350.625 210.023438 351.90625 209.855469 353.140625 C 209.769531 353.792969 210.28125 354.371094 210.9375 354.371094 L 238.382812 354.371094 C 238.953125 354.371094 239.425781 353.933594 239.464844 353.367188 C 239.5 352.902344 239.535156 352.292969 239.550781 351.585938 L 216.988281 351.585938 Z M 35.878906 273.792969 C 36.742188 273.789062 37.597656 273.789062 38.441406 273.785156 C 39.003906 273.785156 39.558594 273.816406 40.109375 273.855469 C 40.238281 273.867188 40.363281 273.875 40.492188 273.890625 C 41.039062 273.941406 41.582031 274.011719 42.117188 274.105469 C 42.140625 274.109375 42.164062 274.113281 42.1875 274.117188 C 42.710938 274.214844 43.226562 274.332031 43.738281 274.464844 C 43.835938 274.492188 43.933594 274.515625 44.03125 274.542969 C 44.566406 274.691406 45.09375 274.855469 45.609375 275.042969 C 45.621094 275.046875 45.636719 275.054688 45.648438 275.058594 C 46.167969 275.25 46.675781 275.464844 47.171875 275.695312 C 47.226562 275.71875 47.277344 275.742188 47.328125 275.765625 C 48.375 276.257812 49.371094 276.832031 50.3125 277.484375 C 50.324219 277.496094 50.339844 277.503906 50.355469 277.515625 C 50.832031 277.847656 51.296875 278.199219 51.746094 278.574219 C 52.859375 279.496094 53.882812 280.53125 54.78125 281.671875 L 54.609375 267.042969 L 54.558594 262.386719 C 48.265625 262.433594 46.847656 262.507812 46.539062 262.539062 C 46.492188 262.5625 46.4375 262.574219 46.382812 262.574219 C 46.363281 262.574219 46.34375 262.574219 46.320312 262.570312 C 46.132812 262.535156 45.984375 262.359375 46 262.167969 C 46.035156 261.71875 46.042969 261.703125 54.546875 261.644531 L 54.539062 260.933594 C 54.164062 260.554688 53.753906 260.203125 53.308594 259.875 L 40.371094 259.875 L 40.371094 259.714844 C 35.140625 260.007812 29.738281 259.519531 28.722656 257.71875 C 22.636719 260.398438 20.574219 266.679688 20.910156 273.828125 C 25.554688 273.816406 30.828125 273.804688 35.878906 273.792969 Z M 99.597656 264.742188 L 85.246094 263.78125 C 85.015625 263.753906 84.789062 263.722656 84.550781 263.707031 L 59.476562 262.0625 L 59.460938 263.410156 L 59.460938 263.5 L 59.199219 287.6875 L 59.183594 289.023438 L 69.695312 288.96875 C 69.695312 288.878906 69.71875 288.792969 69.78125 288.722656 L 74.402344 283.363281 C 74.539062 283.207031 74.773438 283.191406 74.929688 283.324219 C 75.085938 283.457031 75.101562 283.695312 74.96875 283.851562 L 70.34375 289.207031 C 70.269531 289.292969 70.164062 289.335938 70.0625 289.335938 C 70.042969 289.335938 70.027344 289.320312 70.011719 289.320312 L 65.179688 323.589844 L 90.785156 323.589844 C 90.886719 323.589844 90.980469 323.632812 91.046875 323.703125 L 92.1875 308.195312 L 96.882812 323.613281 C 96.917969 323.601562 96.949219 323.589844 96.988281 323.589844 L 121.351562 323.589844 C 121.421875 323.589844 121.488281 323.617188 121.546875 323.65625 L 110.667969 275.453125 C 109.324219 269.496094 105.691406 265.136719 99.597656 264.742188 Z M 94.863281 276.875 L 92.699219 306.335938 C 92.683594 306.53125 92.519531 306.679688 92.328125 306.679688 C 92.316406 306.679688 92.308594 306.679688 92.300781 306.679688 C 92.09375 306.664062 91.941406 306.484375 91.957031 306.28125 L 94.121094 276.824219 C 94.332031 273.542969 93.765625 270.777344 92.4375 268.605469 C 92.328125 268.429688 92.386719 268.203125 92.558594 268.09375 C 92.734375 267.988281 92.964844 268.042969 93.070312 268.21875 C 94.480469 270.523438 95.082031 273.433594 94.863281 276.875 Z M 360.945312 101.121094 L 358.863281 99.285156 L 360.945312 97.445312 C 361.136719 97.277344 361.15625 96.980469 360.984375 96.785156 C 360.816406 96.597656 360.523438 96.578125 360.328125 96.746094 L 358.15625 98.660156 L 355.988281 96.746094 C 355.792969 96.578125 355.5 96.59375 355.328125 96.789062 C 355.15625 96.980469 355.175781 97.277344 355.367188 97.445312 L 357.453125 99.285156 L 355.367188 101.125 C 355.273438 101.207031 355.21875 101.320312 355.210938 101.441406 C 355.203125 101.566406 355.242188 101.6875 355.328125 101.78125 C 355.414062 101.882812 355.542969 101.9375 355.675781 101.9375 C 355.789062 101.9375 355.902344 101.894531 355.984375 101.820312 L 358.15625 99.90625 L 360.328125 101.820312 C 360.414062 101.894531 360.527344 101.9375 360.640625 101.9375 C 360.773438 101.9375 360.902344 101.878906 360.988281 101.78125 C 361.074219 101.6875 361.113281 101.566406 361.105469 101.441406 C 361.09375 101.320312 361.039062 101.203125 360.945312 101.121094 Z M 58.105469 119.480469 L 55.945312 117.578125 L 58.101562 115.675781 C 58.199219 115.589844 58.257812 115.472656 58.265625 115.34375 C 58.277344 115.214844 58.234375 115.089844 58.148438 114.992188 C 58.0625 114.894531 57.941406 114.835938 57.8125 114.828125 C 57.675781 114.820312 57.558594 114.867188 57.464844 114.949219 L 55.214844 116.933594 L 52.96875 114.953125 C 52.765625 114.773438 52.460938 114.792969 52.28125 114.996094 C 52.109375 115.195312 52.128906 115.5 52.328125 115.675781 L 54.484375 117.578125 L 52.324219 119.484375 C 52.125 119.660156 52.105469 119.964844 52.285156 120.164062 C 52.375 120.269531 52.507812 120.328125 52.644531 120.328125 C 52.765625 120.328125 52.878906 120.285156 52.964844 120.207031 L 55.214844 118.222656 L 57.464844 120.207031 C 57.554688 120.285156 57.667969 120.328125 57.785156 120.328125 C 57.925781 120.328125 58.054688 120.269531 58.148438 120.164062 C 58.234375 120.070312 58.277344 119.945312 58.269531 119.816406 C 58.261719 119.6875 58.203125 119.566406 58.105469 119.480469 Z M 196.925781 162.734375 L 195.355469 161.253906 L 196.925781 159.777344 C 196.980469 159.722656 197.011719 159.65625 197.015625 159.578125 C 197.015625 159.503906 196.988281 159.433594 196.9375 159.378906 C 196.832031 159.265625 196.652344 159.257812 196.539062 159.363281 L 194.945312 160.867188 L 193.351562 159.363281 C 193.300781 159.316406 193.230469 159.289062 193.160156 159.289062 C 193.15625 159.289062 193.152344 159.289062 193.148438 159.289062 C 193.074219 159.289062 193.003906 159.324219 192.953125 159.375 C 192.902344 159.429688 192.875 159.503906 192.878906 159.578125 C 192.878906 159.652344 192.910156 159.722656 192.964844 159.773438 L 194.535156 161.253906 L 192.964844 162.730469 C 192.851562 162.839844 192.847656 163.015625 192.953125 163.128906 C 193.003906 163.1875 193.082031 163.21875 193.15625 163.21875 C 193.226562 163.21875 193.296875 163.191406 193.351562 163.140625 L 194.945312 161.640625 L 196.539062 163.140625 C 196.589844 163.191406 196.660156 163.21875 196.730469 163.21875 C 196.808594 163.21875 196.882812 163.1875 196.9375 163.128906 C 196.988281 163.074219 197.015625 163.003906 197.011719 162.929688 C 197.011719 162.855469 196.980469 162.785156 196.925781 162.734375 Z M 159.40625 166.855469 L 154.164062 166.855469 C 154.007812 166.855469 153.878906 166.980469 153.878906 167.136719 L 153.878906 172.382812 C 153.878906 172.535156 154.007812 172.664062 154.164062 172.664062 L 159.40625 172.664062 C 159.5625 172.664062 159.6875 172.535156 159.6875 172.382812 L 159.6875 167.136719 C 159.6875 166.980469 159.5625 166.855469 159.40625 166.855469 Z M 159.40625 175.046875 L 154.164062 175.046875 C 154.007812 175.046875 153.878906 175.171875 153.878906 175.328125 L 153.878906 180.574219 C 153.878906 180.730469 154.007812 180.855469 154.164062 180.855469 L 159.40625 180.855469 C 159.5625 180.855469 159.6875 180.730469 159.6875 180.574219 L 159.6875 175.328125 C 159.6875 175.171875 159.5625 175.046875 159.40625 175.046875 Z M 159.40625 183.242188 L 154.164062 183.242188 C 154.007812 183.242188 153.878906 183.367188 153.878906 183.523438 L 153.878906 188.765625 C 153.878906 188.921875 154.007812 189.050781 154.164062 189.050781 L 159.40625 189.050781 C 159.5625 189.050781 159.6875 188.921875 159.6875 188.765625 L 159.6875 183.523438 C 159.6875 183.367188 159.5625 183.242188 159.40625 183.242188 Z M 159.40625 191.433594 L 154.164062 191.433594 C 154.007812 191.433594 153.878906 191.5625 153.878906 191.714844 L 153.878906 196.960938 C 153.878906 197.117188 154.007812 197.242188 154.164062 197.242188 L 159.40625 197.242188 C 159.5625 197.242188 159.6875 197.117188 159.6875 196.960938 L 159.6875 191.714844 C 159.6875 191.5625 159.5625 191.433594 159.40625 191.433594 Z M 191.445312 169.6875 L 162.898438 169.6875 C 162.742188 169.6875 162.617188 169.816406 162.617188 169.96875 C 162.617188 170.125 162.742188 170.25 162.898438 170.25 L 191.445312 170.25 C 191.601562 170.25 191.726562 170.125 191.726562 169.96875 C 191.726562 169.816406 191.597656 169.6875 191.445312 169.6875 Z M 191.445312 177.910156 L 162.898438 177.910156 C 162.742188 177.910156 162.617188 178.035156 162.617188 178.191406 C 162.617188 178.347656 162.742188 178.472656 162.898438 178.472656 L 191.445312 178.472656 C 191.601562 178.472656 191.726562 178.347656 191.726562 178.191406 C 191.726562 178.035156 191.597656 177.910156 191.445312 177.910156 Z M 191.445312 186.128906 L 162.898438 186.128906 C 162.742188 186.128906 162.617188 186.257812 162.617188 186.410156 C 162.617188 186.566406 162.742188 186.695312 162.898438 186.695312 L 191.445312 186.695312 C 191.601562 186.695312 191.726562 186.566406 191.726562 186.410156 C 191.726562 186.257812 191.597656 186.128906 191.445312 186.128906 Z M 191.445312 194.351562 L 162.898438 194.351562 C 162.742188 194.351562 162.617188 194.476562 162.617188 194.632812 C 162.617188 194.789062 162.742188 194.914062 162.898438 194.914062 L 191.445312 194.914062 C 191.601562 194.914062 191.726562 194.789062 191.726562 194.632812 C 191.726562 194.476562 191.597656 194.351562 191.445312 194.351562 Z M 191.445312 194.351562 " fill-opacity="1" fill-rule="evenodd"/></g><path fill="#f5c0a2" d="M 110.289062 241.761719 C 110.351562 241.789062 110.414062 241.820312 110.476562 241.851562 C 110.550781 241.886719 110.574219 241.96875 110.550781 242.039062 C 110.777344 242.46875 110.375 243.949219 109.792969 244.167969 C 109.765625 244.179688 109.722656 244.183594 109.683594 244.1875 C 109.738281 244.230469 109.761719 244.300781 109.730469 244.367188 C 109.71875 244.386719 109.695312 244.394531 109.675781 244.40625 C 109.835938 244.992188 109.617188 246 108.828125 246.347656 C 107.800781 246.800781 105.375 245.800781 104.4375 244.414062 C 103.757812 243.402344 104.421875 242.832031 104.832031 242.597656 C 104.847656 242.574219 104.855469 242.554688 104.878906 242.542969 C 104.589844 242.324219 104.386719 242.097656 104.332031 241.871094 C 104.054688 240.742188 104.699219 240.371094 105.09375 240.246094 C 105.082031 240.214844 105.070312 240.183594 105.074219 240.152344 C 105.082031 240.128906 105.097656 240.113281 105.113281 240.097656 C 104.761719 239.855469 104.507812 239.609375 104.421875 239.378906 C 104.28125 238.984375 104.347656 238.648438 104.496094 238.371094 C 104.742188 237.929688 105.203125 237.679688 105.691406 237.679688 C 105.710938 237.601562 105.785156 237.550781 105.867188 237.566406 C 105.871094 237.570312 105.996094 237.597656 106.210938 237.648438 C 106.066406 237.453125 105.96875 237.222656 105.941406 236.972656 C 105.894531 236.582031 105.988281 236.152344 106.464844 235.871094 C 107.53125 235.234375 110.382812 235.9375 111.320312 236.929688 C 111.6875 237.320312 111.265625 239.066406 110.859375 239.378906 C 110.898438 239.425781 110.917969 239.484375 110.886719 239.539062 C 110.886719 239.546875 110.878906 239.546875 110.871094 239.550781 C 111.117188 239.917969 110.8125 241.363281 110.289062 241.761719 Z M 268.050781 334.25 L 258.03125 333.828125 C 258.027344 334.011719 258.019531 334.1875 258.019531 334.375 C 258.019531 337.871094 257.8125 340.542969 257.644531 344.265625 C 258.519531 344.613281 259.664062 344.566406 260.921875 343.222656 C 263.453125 340.519531 266.175781 339.238281 268.886719 340.136719 C 268.167969 338.1875 268.011719 336.222656 268.050781 334.25 Z M 261.113281 167.441406 L 258.953125 154.15625 C 259.691406 153.589844 260.199219 152.816406 260.355469 151.898438 C 260.726562 149.714844 259.664062 147.707031 257.976562 147.421875 C 256.292969 147.136719 255.90625 148.726562 255.71875 149.820312 L 255.671875 150.09375 C 254.914062 150.058594 254.277344 150.074219 254.277344 150.074219 C 253.429688 147.578125 254.589844 143.605469 254.148438 140.609375 C 245.535156 138.902344 242.386719 142.515625 238.695312 141.019531 C 238.398438 142.054688 238.25 143.152344 238.292969 144.289062 L 238.691406 155.1875 C 238.828125 158.738281 241.171875 161.992188 244.765625 163.09375 C 244.957031 163.15625 245.15625 163.199219 245.351562 163.242188 L 245.769531 168.660156 C 246.105469 172.734375 249.550781 175.855469 253.882812 175.484375 C 258.214844 175.113281 261.453125 171.515625 261.113281 167.441406 Z M 231.015625 196.300781 L 220.246094 190.515625 L 214.8125 200.554688 L 207.414062 186.277344 C 207.300781 182.664062 203.371094 177.988281 201.578125 175.726562 C 200.675781 174.59375 200.324219 174.355469 199.816406 174.824219 C 199.136719 175.449219 199.148438 176.675781 199.527344 178.046875 C 199.867188 179.273438 200.453125 180.464844 200.582031 181.125 C 200.117188 180.980469 199.628906 180.851562 199.144531 180.730469 L 199.144531 193.988281 C 199.699219 194.117188 200.214844 194.214844 200.691406 194.277344 C 203.066406 201.285156 208.710938 217.855469 208.710938 217.855469 C 209.867188 221.367188 214.035156 223.050781 217.160156 221.074219 C 217.292969 220.988281 217.425781 220.894531 217.554688 220.796875 C 218.132812 220.363281 218.605469 219.84375 218.976562 219.269531 L 231.234375 198.742188 C 231.164062 197.9375 231.089844 197.121094 231.015625 196.300781 Z M 54.089844 206.296875 L 53.625 196.035156 C 53.558594 194.617188 53.191406 193.285156 52.59375 192.089844 C 52.449219 192.441406 52.277344 192.765625 52.085938 193.070312 C 52.0625 193.105469 52.035156 193.136719 52.011719 193.171875 C 51.839844 193.4375 51.65625 193.6875 51.453125 193.917969 C 51.398438 193.976562 51.339844 194.027344 51.289062 194.082031 C 51.101562 194.28125 50.910156 194.472656 50.699219 194.648438 C 50.628906 194.710938 50.550781 194.765625 50.476562 194.820312 C 50.273438 194.980469 50.070312 195.132812 49.851562 195.273438 C 49.761719 195.328125 49.667969 195.378906 49.574219 195.433594 C 49.359375 195.5625 49.144531 195.683594 48.917969 195.796875 C 48.8125 195.847656 48.707031 195.890625 48.601562 195.941406 C 48.378906 196.042969 48.152344 196.140625 47.917969 196.230469 C 47.800781 196.273438 47.6875 196.3125 47.570312 196.351562 C 47.339844 196.433594 47.105469 196.511719 46.867188 196.578125 C 46.746094 196.617188 46.621094 196.648438 46.496094 196.679688 C 46.257812 196.746094 46.023438 196.804688 45.78125 196.855469 C 45.652344 196.886719 45.523438 196.914062 45.394531 196.9375 C 45.15625 196.984375 44.921875 197.03125 44.683594 197.070312 C 44.546875 197.089844 44.414062 197.113281 44.277344 197.132812 C 44.046875 197.167969 43.8125 197.195312 43.582031 197.226562 C 43.441406 197.242188 43.304688 197.257812 43.167969 197.269531 C 42.941406 197.292969 42.71875 197.316406 42.496094 197.332031 C 42.355469 197.34375 42.21875 197.355469 42.078125 197.367188 C 41.863281 197.378906 41.65625 197.390625 41.445312 197.402344 C 41.300781 197.410156 41.160156 197.417969 41.019531 197.421875 C 40.828125 197.429688 40.640625 197.4375 40.453125 197.441406 C 40.304688 197.445312 40.15625 197.449219 40.011719 197.453125 C 39.847656 197.453125 39.691406 197.457031 39.53125 197.457031 C 39.371094 197.457031 39.210938 197.460938 39.058594 197.460938 C 39.042969 197.460938 39.023438 197.460938 39.007812 197.460938 C 39.066406 199 39.039062 201.917969 38.191406 204.171875 L 37.542969 200.90625 C 37.335938 199.878906 36.929688 198.390625 35.351562 198.707031 C 33.773438 199.019531 32.824219 200.9375 33.234375 202.984375 C 33.550781 204.578125 34.976562 205.710938 36.835938 205.882812 C 36.992188 205.898438 37.140625 205.875 37.285156 205.839844 C 37.207031 205.933594 37.136719 206.03125 37.054688 206.121094 L 37.957031 208.378906 L 37.625 212.503906 L 36.429688 219.949219 C 36.132812 223.429688 38.714844 226.492188 42.195312 226.789062 C 45.675781 227.085938 48.460938 224.40625 48.761719 220.925781 L 49.199219 214.101562 C 52.363281 212.742188 54.234375 209.574219 54.089844 206.296875 Z M 227.15625 340.488281 C 230.8125 345.316406 235.738281 344.324219 238.507812 342.910156 C 238.507812 342.914062 238.511719 342.914062 238.511719 342.917969 C 238.496094 340.125 238.886719 336.375 239.203125 333.800781 L 228.496094 333.800781 C 228.257812 336.800781 227.816406 338.816406 227.144531 340.5 C 227.148438 340.496094 227.152344 340.492188 227.15625 340.488281 Z M 282.871094 196.128906 L 275.394531 196.429688 C 274.601562 202.90625 273.980469 208.902344 273.980469 211.773438 C 273.980469 217.960938 274.917969 228.863281 274.917969 233.371094 C 274.917969 234.566406 274.050781 235.578125 272.875 235.777344 C 272.277344 235.878906 271.671875 235.972656 271.066406 236.0625 C 271.710938 239.5 272.558594 241.691406 273.660156 241.179688 C 276.675781 239.789062 280.210938 229.488281 281.769531 224.503906 C 282.289062 222.835938 282.535156 221.105469 282.511719 219.363281 C 282.398438 211.9375 282.792969 198.6875 282.871094 196.128906 Z M 65.652344 254.457031 L 66.453125 248.117188 L 65.027344 248.3125 C 63.152344 248.582031 61.757812 250.1875 61.757812 252.078125 L 61.757812 252.082031 C 61.757812 252.96875 62.152344 253.796875 62.765625 254.460938 Z M 65.652344 254.457031 " fill-opacity="1" fill-rule="nonzero"/></svg>